<?xml version="1.0" encoding="iso-8859-1"?>
<!-- Generator: Adobe Illustrator 19.0.0, SVG Export Plug-In . SVG Version: 6.00 Build 0)  -->
<svg version="1.1" id="Layer_1" xmlns="http://www.w3.org/2000/svg" xmlns:xlink="http://www.w3.org/1999/xlink" x="0px" y="0px"
	 viewBox="0 0 512 512" style="enable-background:new 0 0 512 512;" xml:space="preserve">
<path style="fill:#37BDD9;" d="M0,256c0,29.607,5.009,57.99,14.358,84.48c4.007,11.353,8.682,22.372,14.247,32.946
	c9.571,18.477,21.369,35.729,35.06,51.311c7.346,8.348,15.25,16.25,23.598,23.597c15.581,13.69,32.835,25.489,51.31,35.061
	c10.575,5.565,21.594,10.24,32.946,14.247C198.01,506.991,226.394,512,256,512c47.416,0,91.826-13.023,130.002-35.617
	c9.796-5.677,19.145-12.132,28.049-19.144c16.029-12.577,30.61-27.158,43.077-43.186c7.122-8.904,13.579-18.254,19.256-28.049
	c11.13-18.699,19.923-38.957,25.822-60.438c3.784-12.689,6.456-25.934,7.904-39.402C511.443,276.257,512,266.24,512,256
	c0-29.607-5.009-57.99-14.358-84.48c-4.007-11.353-8.682-22.372-14.247-32.946c-9.571-18.477-21.369-35.729-35.06-51.311
	c-7.346-8.348-15.25-16.25-23.598-23.597c-15.583-13.69-32.835-25.489-51.311-35.061c-10.575-5.565-21.594-10.24-32.946-14.247
	C313.99,5.009,285.606,0,256,0c-10.239,0-20.258,0.557-30.163,1.892c-13.468,1.447-26.713,4.118-39.402,7.791
	c-21.481,6.01-41.739,14.803-60.437,25.823c-9.797,5.788-19.145,12.243-28.05,19.367C81.92,67.339,67.339,81.92,54.761,97.948
	c-7.011,8.904-13.467,18.254-19.143,28.049C13.021,164.174,0,208.584,0,256"/>
<path style="fill:#33A3BF;" d="M386.002,476.383c9.796-5.677,19.145-12.132,28.049-19.144
	c16.029-12.577,30.609-27.157,43.076-43.186c7.122-8.904,13.579-18.254,19.256-28.049c11.13-18.699,19.923-38.957,25.822-60.438
	c3.784-12.689,6.456-25.934,7.904-39.402C511.443,276.257,512,266.24,512,256c0-29.607-5.009-57.99-14.358-84.48
	c-4.007-11.352-8.682-22.372-14.247-32.946c-9.571-18.477-21.369-35.729-35.06-51.311c-7.346-8.348-15.25-16.25-23.598-23.597
	c-15.583-13.69-32.835-25.489-51.311-35.061c-10.575-5.565-21.594-10.24-32.946-14.247C313.99,5.009,285.606,0,256,0v512
	C303.416,512,347.826,498.977,386.002,476.383z"/>
<g>
	<path style="fill:#61DAF2;" d="M476.383,386.003c-5.677,9.795-12.133,19.144-19.256,28.049L97.948,54.873
		c8.903-7.123,18.253-13.579,28.049-19.367L476.383,386.003z"/>
	<path style="fill:#61DAF2;" d="M414.052,457.238L301.191,344.376l-66.779-66.779l-0.003-0.003l-0.003-0.003l-66.77-66.77
		l-0.008-0.009c0,0-0.006-0.004-0.008-0.007L54.761,97.948c-7.011,8.904-13.467,18.254-19.143,28.049l96.612,96.612L14.358,340.48
		c4.007,11.353,8.682,22.372,14.247,32.946l127.221-127.221l43.186,43.186L63.666,424.737c7.346,8.348,15.25,16.25,23.598,23.597
		l135.345-135.346l43.185,43.186l-127.22,127.221c10.575,5.565,21.594,10.24,32.946,14.247L289.391,379.77l96.612,96.612
		C395.799,470.706,405.148,464.25,414.052,457.238z"/>
	<path style="fill:#61DAF2;" d="M446.553,222.609l51.088-51.089c-4.007-11.352-8.682-22.372-14.247-32.946l-60.437,60.438
		l-43.186-43.186l68.564-68.563c-7.346-8.348-15.25-16.25-23.598-23.597l-68.562,68.563l-43.186-43.186l60.438-60.438
		c-10.575-5.565-21.594-10.24-32.946-14.247l-51.089,51.089L225.837,1.892c-13.468,1.447-26.713,4.118-39.402,7.791l91.154,91.154
		l0.003,0.004l0.004,0.003l66.777,66.777l0.002,0.002l0.002,0.002l66.78,66.78l91.048,91.158
		c3.784-12.689,6.456-25.934,7.904-39.402L446.553,222.609z"/>
</g>
<g>
	<path style="fill:#45C7E6;" d="M256,299.186v47.194l9.794,9.794L256,365.968v47.193l33.391-33.391l96.612,96.612
		c9.796-5.677,19.145-12.132,28.049-19.144L301.191,344.376L256,299.186z"/>
	<path style="fill:#45C7E6;" d="M497.642,171.52c-4.007-11.352-8.682-22.372-14.247-32.946l-60.438,60.438l-43.186-43.186
		l68.564-68.563c-7.346-8.348-15.25-16.25-23.598-23.597l-68.562,68.563l-43.186-43.186l60.438-60.438
		c-10.575-5.565-21.594-10.24-32.946-14.247l-51.089,51.089L256,32.056v47.193l21.589,21.589l0.003,0.004l0.004,0.003l66.777,66.777
		l0.002,0.002l0.002,0.002l66.78,66.78l91.048,91.158c3.784-12.689,6.456-25.934,7.904-39.402l-63.557-63.555L497.642,171.52z"/>
	<path style="fill:#45C7E6;" d="M256,212.924l201.128,201.128c7.122-8.904,13.579-18.254,19.256-28.049L256,165.55V212.924z"/>
</g>
<g>
</g>
<g>
</g>
<g>
</g>
<g>
</g>
<g>
</g>
<g>
</g>
<g>
</g>
<g>
</g>
<g>
</g>
<g>
</g>
<g>
</g>
<g>
</g>
<g>
</g>
<g>
</g>
<g>
</g>
</svg>
