<?xml version="1.0" encoding="iso-8859-1"?>
<!-- Generator: Adobe Illustrator 18.0.0, SVG Export Plug-In . SVG Version: 6.00 Build 0)  -->
<!DOCTYPE svg PUBLIC "-//W3C//DTD SVG 1.1//EN" "http://www.w3.org/Graphics/SVG/1.1/DTD/svg11.dtd">
<svg version="1.1" id="Capa_1" xmlns="http://www.w3.org/2000/svg" xmlns:xlink="http://www.w3.org/1999/xlink" x="0px" y="0px"
	 viewBox="0 0 75.96 75.96" style="enable-background:new 0 0 75.96 75.96;" xml:space="preserve">
<g>
	<path style="fill-rule:evenodd;clip-rule:evenodd;fill:#F9AF46;" d="M75.955,37.981c0,20.972-17.003,37.976-37.979,37.976
		C17.003,75.957,0,58.953,0,37.981C0,17.003,17.003,0.003,37.976,0.003C58.951,0.003,75.955,17.003,75.955,37.981z"/>
	<path style="fill-rule:evenodd;clip-rule:evenodd;fill:#FC5A29;" d="M39.301,16.46c0,0-35.556,14.503-37.967,31.533
		c0,0,4.915,22.839,30.526,27.473c0,0,11.648-18.411,13.513-54.246C45.372,21.22,43.873,16.038,39.301,16.46z"/>
	<path style="fill-rule:evenodd;clip-rule:evenodd;fill:#FC5A29;" d="M52.367,19.914c0,0,22.2,14.744,19.336,35.541
		c-0.001-0.001,6.731-9.638,3.264-27.118c0,0-2.97-16.782-19.437-14.769C55.53,13.567,50.565,14.81,52.367,19.914z"/>
	<path style="fill-rule:evenodd;clip-rule:evenodd;fill:#FC5A29;" d="M46.635,8.29c0,0-0.152-10.132-15.219-7.873
		c-0.001,0-8.894,1.544-17.333,7.873c0,0,21.4-4.521,26.373,3.091C40.456,11.381,46.483,14.018,46.635,8.29z"/>
	
		<ellipse transform="matrix(0.8513 0.5246 -0.5246 0.8513 14.615 -22.6323)" style="fill-rule:evenodd;clip-rule:evenodd;fill:#FFFFFF;" cx="47.24" cy="14.471" rx="8.289" ry="6.932"/>
</g>
<g>
</g>
<g>
</g>
<g>
</g>
<g>
</g>
<g>
</g>
<g>
</g>
<g>
</g>
<g>
</g>
<g>
</g>
<g>
</g>
<g>
</g>
<g>
</g>
<g>
</g>
<g>
</g>
<g>
</g>
</svg>
