<?xml version="1.0" encoding="iso-8859-1"?>
<!-- Generator: Adobe Illustrator 18.0.0, SVG Export Plug-In . SVG Version: 6.00 Build 0)  -->
<!DOCTYPE svg PUBLIC "-//W3C//DTD SVG 1.1//EN" "http://www.w3.org/Graphics/SVG/1.1/DTD/svg11.dtd">
<svg version="1.1" id="Capa_1" xmlns="http://www.w3.org/2000/svg" xmlns:xlink="http://www.w3.org/1999/xlink" x="0px" y="0px"
	 viewBox="0 0 433.511 433.511" style="enable-background:new 0 0 433.511 433.511;" xml:space="preserve">
<g>
	<g id="XMLID_17_">
		<g>
			<path style="fill:#B3B3B3;" d="M207.77,130.619l7.13,21.85h-7.07c-1.47,0-2.9,0.43-4.13,1.24l-58.88,38.92l-13.9-42.59
				L207.77,130.619z"/>
			<path style="fill:#B3B3B3;" d="M303.36,106.479l24.75,75.82l-21.37,8.63v-30.96c0-4.14-3.35-7.5-7.5-7.5h-14.23
				c-3.26-11.25-13.65-19.5-25.93-19.5c-12.29,0-22.67,8.25-25.93,19.5h-2.47l-8.33-25.53L303.36,106.479z"/>
			<path style="fill:#808080;" d="M25.24,231.059c5.51,0,10,4.48,10,9.99c0,5.51-4.49,9.99-10,9.99s-9.99-4.48-9.99-9.99
				C15.25,235.539,19.73,231.059,25.24,231.059z"/>
			<path style="fill:#808080;" d="M116.34,153.719l15.5,47.49l-53.41,35.31c-2.55-3.91-4.59-8.14-6.07-12.67
				c-1.77-5.4-2.67-11.01-2.67-16.66c0-24.55,16.65-45.9,40.48-51.91L116.34,153.719z"/>
			<path style="fill:#4D4D4D;" d="M431.94,144.209c4.56,13.95-3.08,29-17.03,33.56c-2.72,0.89-5.51,1.33-8.29,1.33
				c-4.13,0-8.23-0.98-12.02-2.9c-1.57-0.8-3.04-1.73-4.39-2.79l-83.47,33.7v44.4c30.91,3.72,54.94,30.08,54.94,61.97
				c0,34.43-28.01,62.44-62.44,62.44c-27.87,0-51.54-18.36-59.54-43.63H104.71c-2.55,24.48-23.3,43.63-48.44,43.63
				c-26.86,0-48.7-21.85-48.7-48.7c0-24.31,17.89-44.51,41.19-48.13v-18.93c0-2.52,1.27-4.87,3.37-6.26l13.79-9.11
				c-1.9-2.91-3.58-5.95-5.02-9.13l-10.72,3.78c0.03,0.53,0.06,1.07,0.06,1.61c0,13.78-11.22,24.99-25,24.99
				s-24.99-11.21-24.99-24.99s11.21-24.99,24.99-24.99c7.89,0,14.92,3.67,19.51,9.39l11.45-4.04c-0.99-4.67-1.51-9.43-1.51-14.22
				c0-31.43,21.31-58.76,51.81-66.45l104.39-26.38l147.85-37.35c0.46-1.65,1.1-3.27,1.89-4.84c3.22-6.34,8.71-11.04,15.47-13.25
				c6.76-2.21,13.97-1.65,20.31,1.57c6.34,3.22,11.04,8.71,13.25,15.47L431.94,144.209z M410.25,163.509
				c6.09-1.99,9.42-8.56,7.43-14.64l-22.28-68.26c-0.96-2.95-3.02-5.34-5.78-6.75c-1.66-0.84-3.45-1.26-5.25-1.26
				c-1.21,0-2.43,0.19-3.61,0.58c-2.95,0.96-5.35,3.01-6.75,5.78c-1.38,2.72-1.64,5.81-0.72,8.72l22.32,68.4
				c0.96,2.94,3.02,5.34,5.78,6.74C404.16,164.229,407.3,164.469,410.25,163.509z M381.37,160.799c0-0.03-0.01-0.05-0.02-0.07
				l-22.29-68.25c0-0.03-0.01-0.05-0.02-0.07l-41.11,10.38l24.13,73.88L381.37,160.799z M346.68,313.479
				c0-26.16-21.28-47.44-47.44-47.44s-47.44,21.28-47.44,47.44s21.28,47.44,47.44,47.44S346.68,339.639,346.68,313.479z
				 M328.11,182.299l-24.75-75.82l-81.01,20.46l8.33,25.53h2.47c3.26-11.25,13.64-19.5,25.93-19.5c12.28,0,22.67,8.25,25.93,19.5
				h14.23c4.15,0,7.5,3.36,7.5,7.5v30.96L328.11,182.299z M291.74,251.509v-84.04h-6.73c-3.26,11.25-13.65,19.5-25.93,19.5
				c-12.29,0-22.68-8.25-25.94-19.5h-23.05l-146.33,96.72v14.9c20.06,3.11,36.1,18.49,40.2,38.2h132.97
				c-0.08-1.26-0.13-2.53-0.13-3.81C236.8,281.589,260.84,255.229,291.74,251.509z M271.07,159.969c0-6.61-5.38-12-11.99-12
				c-6.62,0-12,5.39-12,12c0,6.62,5.38,12,12,12C265.69,171.969,271.07,166.589,271.07,159.969z M214.9,152.469l-7.13-21.85
				l-76.85,19.42l13.9,42.59l58.88-38.92c1.23-0.81,2.66-1.24,4.13-1.24H214.9z M131.84,201.209l-15.5-47.49l-6.17,1.56
				c-23.83,6.01-40.48,27.36-40.48,51.91c0,5.65,0.9,11.26,2.67,16.66c1.48,4.53,3.52,8.76,6.07,12.67L131.84,201.209z
				 M89.98,327.219c0-18.59-15.12-33.71-33.71-33.71c-18.58,0-33.7,15.12-33.7,33.71c0,18.58,15.12,33.7,33.7,33.7
				C74.86,360.919,89.98,345.799,89.98,327.219z M35.24,241.049c0-5.51-4.49-9.99-10-9.99s-9.99,4.48-9.99,9.99
				c0,5.51,4.48,9.99,9.99,9.99S35.24,246.559,35.24,241.049z"/>
			<path style="fill:#808080;" d="M417.68,148.869c1.99,6.08-1.34,12.65-7.43,14.64c-2.95,0.96-6.09,0.72-8.86-0.69
				c-2.76-1.4-4.82-3.8-5.78-6.74l-22.32-68.4c-0.92-2.91-0.66-6,0.72-8.72c1.4-2.77,3.8-4.82,6.75-5.78
				c1.18-0.39,2.4-0.58,3.61-0.58c1.8,0,3.59,0.42,5.25,1.26c2.76,1.41,4.82,3.8,5.78,6.75L417.68,148.869z"/>
			<path style="fill:#B3B3B3;" d="M381.35,160.729c0.01,0.02,0.02,0.04,0.02,0.07l-39.31,15.87l-24.13-73.88l41.11-10.38
				c0.01,0.02,0.02,0.04,0.02,0.07L381.35,160.729z"/>
			<path style="fill:#AD723D;" d="M299.24,266.039c26.16,0,47.44,21.28,47.44,47.44s-21.28,47.44-47.44,47.44
				s-47.44-21.28-47.44-47.44S273.08,266.039,299.24,266.039z M324.24,313.479c0-13.78-11.22-24.99-25-24.99
				s-24.99,11.21-24.99,24.99s11.21,25,24.99,25S324.24,327.259,324.24,313.479z"/>
			<path style="fill:#4D4D4D;" d="M299.24,288.489c13.78,0,25,11.21,25,24.99s-11.22,25-25,25s-24.99-11.22-24.99-25
				S285.46,288.489,299.24,288.489z M309.24,313.479c0-5.51-4.49-9.99-10-9.99c-5.51,0-9.99,4.48-9.99,9.99c0,5.51,4.48,10,9.99,10
				C304.75,323.479,309.24,318.989,309.24,313.479z"/>
			<path style="fill:#B3B3B3;" d="M299.24,303.489c5.51,0,10,4.48,10,9.99c0,5.51-4.49,10-10,10c-5.51,0-9.99-4.49-9.99-10
				C289.25,307.969,293.73,303.489,299.24,303.489z"/>
			<path style="fill:#E0974F;" d="M291.74,167.469v84.04c-30.9,3.72-54.94,30.08-54.94,61.97c0,1.28,0.05,2.55,0.13,3.81H103.96
				c-4.1-19.71-20.14-35.09-40.2-38.2v-14.9l146.33-96.72h23.05c3.26,11.25,13.65,19.5,25.94,19.5c12.28,0,22.67-8.25,25.93-19.5
				H291.74z"/>
			<path style="fill:#808080;" d="M259.08,147.969c6.61,0,11.99,5.39,11.99,12c0,6.62-5.38,12-11.99,12c-6.62,0-12-5.38-12-12
				C247.08,153.359,252.46,147.969,259.08,147.969z"/>
			<path style="fill:#AD723D;" d="M56.27,293.509c18.59,0,33.71,15.12,33.71,33.71c0,18.58-15.12,33.7-33.71,33.7
				c-18.58,0-33.7-15.12-33.7-33.7C22.57,308.629,37.69,293.509,56.27,293.509z M69.27,327.219c0-0.43-0.02-0.86-0.06-1.28
				c-0.05-0.42-0.11-0.85-0.19-1.26c-0.17-0.83-0.42-1.65-0.74-2.43c-0.33-0.79-0.73-1.54-1.2-2.25c-0.24-0.35-0.49-0.7-0.76-1.03
				c-0.27-0.33-0.56-0.64-0.86-0.94c-0.3-0.3-0.62-0.59-0.95-0.86c-0.32-0.27-0.67-0.53-1.02-0.76c-0.71-0.47-1.46-0.87-2.25-1.2
				c-0.78-0.32-1.6-0.57-2.43-0.74c-0.42-0.08-0.84-0.15-1.26-0.19c-0.85-0.08-1.71-0.08-2.56,0c-0.42,0.04-0.84,0.11-1.26,0.19
				c-0.83,0.17-1.65,0.42-2.43,0.74c-0.79,0.33-1.54,0.73-2.25,1.2c-0.35,0.23-0.69,0.49-1.02,0.76c-0.33,0.27-0.65,0.56-0.95,0.86
				c-2.42,2.41-3.81,5.77-3.81,9.19c0,0.42,0.02,0.85,0.07,1.28c0.04,0.42,0.1,0.84,0.19,1.26c0.16,0.83,0.41,1.65,0.74,2.43
				c0.32,0.78,0.72,1.54,1.19,2.24c0.24,0.36,0.49,0.7,0.76,1.03c0.27,0.33,0.56,0.65,0.86,0.95s0.62,0.59,0.95,0.86
				c0.33,0.27,0.67,0.52,1.02,0.76c0.71,0.46,1.46,0.87,2.25,1.19c0.78,0.33,1.6,0.58,2.43,0.74c0.42,0.09,0.84,0.15,1.26,0.19
				c0.43,0.05,0.86,0.07,1.28,0.07c0.42,0,0.85-0.02,1.28-0.07c0.42-0.04,0.84-0.1,1.26-0.19c0.83-0.16,1.65-0.41,2.43-0.74
				c0.79-0.32,1.54-0.73,2.25-1.19c0.35-0.24,0.7-0.49,1.02-0.76c0.33-0.27,0.65-0.56,0.95-0.86c0.3-0.3,0.59-0.62,0.86-0.95
				c0.27-0.33,0.52-0.67,0.76-1.03c0.47-0.7,0.87-1.46,1.2-2.24c0.32-0.78,0.57-1.6,0.74-2.43c0.08-0.42,0.14-0.84,0.19-1.26
				C69.25,328.069,69.27,327.639,69.27,327.219z"/>
			<path style="fill:#4D4D4D;" d="M69.21,325.939c0.04,0.42,0.06,0.85,0.06,1.28c0,0.42-0.02,0.85-0.06,1.28
				c-0.05,0.42-0.11,0.84-0.19,1.26c-0.17,0.83-0.42,1.65-0.74,2.43c-0.33,0.78-0.73,1.54-1.2,2.24c-0.24,0.36-0.49,0.7-0.76,1.03
				c-0.27,0.33-0.56,0.65-0.86,0.95c-0.3,0.3-0.62,0.59-0.95,0.86c-0.32,0.27-0.67,0.52-1.02,0.76c-0.71,0.46-1.46,0.87-2.25,1.19
				c-0.78,0.33-1.6,0.58-2.43,0.74c-0.42,0.09-0.84,0.15-1.26,0.19c-0.43,0.05-0.86,0.07-1.28,0.07c-0.42,0-0.85-0.02-1.28-0.07
				c-0.42-0.04-0.84-0.1-1.26-0.19c-0.83-0.16-1.65-0.41-2.43-0.74c-0.79-0.32-1.54-0.73-2.25-1.19c-0.35-0.24-0.69-0.49-1.02-0.76
				c-0.33-0.27-0.65-0.56-0.95-0.86s-0.59-0.62-0.86-0.95c-0.27-0.33-0.52-0.67-0.76-1.03c-0.47-0.7-0.87-1.46-1.19-2.24
				c-0.33-0.78-0.58-1.6-0.74-2.43c-0.09-0.42-0.15-0.84-0.19-1.26c-0.05-0.43-0.07-0.86-0.07-1.28c0-3.42,1.39-6.78,3.81-9.19
				c0.3-0.3,0.62-0.59,0.95-0.86c0.33-0.27,0.67-0.53,1.02-0.76c0.71-0.47,1.46-0.87,2.25-1.2c0.78-0.32,1.6-0.57,2.43-0.74
				c0.42-0.08,0.84-0.15,1.26-0.19c0.85-0.08,1.71-0.08,2.56,0c0.42,0.04,0.84,0.11,1.26,0.19c0.83,0.17,1.65,0.42,2.43,0.74
				c0.79,0.33,1.54,0.73,2.25,1.2c0.35,0.23,0.7,0.49,1.02,0.76c0.33,0.27,0.65,0.56,0.95,0.86c0.3,0.3,0.59,0.61,0.86,0.94
				c0.27,0.33,0.52,0.68,0.76,1.03c0.47,0.71,0.87,1.46,1.2,2.25c0.32,0.78,0.57,1.6,0.74,2.43
				C69.1,325.089,69.16,325.519,69.21,325.939z"/>
		</g>
		<g>
		</g>
	</g>
</g>
<g>
</g>
<g>
</g>
<g>
</g>
<g>
</g>
<g>
</g>
<g>
</g>
<g>
</g>
<g>
</g>
<g>
</g>
<g>
</g>
<g>
</g>
<g>
</g>
<g>
</g>
<g>
</g>
<g>
</g>
</svg>
